<?xml version="1.0" standalone="no"?>
<!DOCTYPE svg PUBLIC "-//W3C//DTD SVG 20010904//EN"
 "http://www.w3.org/TR/2001/REC-SVG-20010904/DTD/svg10.dtd">
<svg version="1.0" xmlns="http://www.w3.org/2000/svg"
 width="260.000000pt" height="260.000000pt" viewBox="0 0 260.000000 260.000000"
 preserveAspectRatio="xMidYMid meet">
<metadata>
Created by potrace 1.11, written by Peter Selinger 2001-2013
</metadata>
<g transform="translate(0.000000,260.000000) scale(0.100000,-0.100000)"
fill="#000000" stroke="none">
<path d="M1142 2589 c-555 -75 -996 -483 -1113 -1030 -31 -146 -32 -371 -1
-516 136 -633 697 -1071 1332 -1039 337 17 615 140 855 381 241 240 364 518
381 855 29 565 -325 1090 -864 1284 -166 59 -422 88 -590 65z m-42 -1280 c113
-303 207 -555 208 -560 3 -6 -36 -9 -93 -7 l-97 3 -18 45 c-9 25 -34 93 -54
153 l-38 107 -215 -2 -215 -3 -52 -150 -52 -150 -97 -3 -97 -3 18 48 c10 26
103 279 207 560 l190 513 100 0 100 0 205 -551z m828 525 c102 -20 169 -58
209 -118 42 -61 53 -103 53 -196 0 -120 -55 -209 -167 -272 l-42 -24 147 -230
c82 -126 151 -235 156 -241 5 -10 -16 -13 -96 -13 l-103 0 -133 220 -134 220
-89 0 -89 0 0 -220 0 -220 -90 0 -90 0 0 555 0 555 195 0 c139 0 218 -5 273
-16z"/>
<path d="M720 1462 c-41 -123 -76 -230 -78 -238 -3 -12 25 -14 156 -14 l160 0
-77 228 c-43 125 -80 232 -82 238 -2 5 -38 -91 -79 -214z"/>
<path d="M1640 1515 l0 -187 118 4 c133 5 188 25 221 79 43 70 34 180 -19 229
-38 36 -92 50 -216 57 l-104 6 0 -188z"/>
</g>
</svg>
